<svg xmlns="http://www.w3.org/2000/svg" viewBox="0 0 19.69 15.25" fill="#0078D4">
  <path d="M9.105 14.43l4.642-.82.043-.01-2.387-2.84a403.945 403.945 0 0 1-2.387-2.853c0-.014 2.465-6.802 2.479-6.826.004-.008 1.682 2.888 4.066 7.02l4.09 7.09.031.054-7.587-.001-7.587-.001 4.597-.812zM.750 13.500l3.942-6.56L8.634.382 8.665.325l.28.489c.154.27.97 1.68 1.814 3.133l1.533 2.644-1.653 2.776c-.909 1.526-1.678 2.802-1.71 2.835-.032.033-1.269.225-2.75.425S3.103 13.010 3.076 13.017c-.027.006.336-.558.750-1.254.414-.695.753-1.266.753-1.27 0-.003-.semibold 1.377-.969 2.311-.494.933-.895 1.732-.89 1.775.004.042-.417.08-1.066.096C.081 15.185 0 15.182 0 15.139c0-.031.338-.623.751-1.316l.036-.062-.037-.062z"/>
</svg>