<svg xmlns="http://www.w3.org/2000/svg" viewBox="0 0 256 256">
  <path fill="#EA4335" d="M170.252 49.789l28.587-28.587 1.358-12.189C186.586 3.417 170.512 0 153.751 0c-35.665 0-67.518 16.536-88.273 42.366l13.452 10.396 39.103 6.604c.001 0 8.188-13.461 35.718-13.461 11.473 0 21.845 3.94 29.501 10.884z"/>
  <path fill="#4285F4" d="M238.487 79.047c-5.695-20.759-16.703-39.331-31.587-54.215l-42.346 42.346c12.012 11.906 19.478 28.417 19.478 46.58v6.122c16.904 0 30.611 13.707 30.611 30.612 0 16.904-13.707 30.611-30.611 30.611h-61.222l-6.122 6.383v36.733l6.122 6.122h61.222c38.456 0 69.593-31.401 69.593-69.857 0-35.022-25.807-63.933-59.138-69.437z"/>
  <path fill="#34A853" d="M61.71 230.139h61.222v-49.238H61.71c-4.314 0-8.476-.906-12.229-2.535l-8.515 2.606-28.878 28.587-2.523 8.515c10.885 7.593 24.167 12.065 38.145 12.065z"/>
  <path fill="#FBBC05" d="M61.71 68.139c-38.456 0-69.593 31.401-69.593 69.857 0 24.285 12.406 45.672 31.218 58.115l39.916-39.916c-6.726-4.565-11.141-12.282-11.141-21.082 0-13.977 11.327-25.305 25.304-25.305 8.8 0 16.517 4.415 21.082 11.141l39.916-39.916c-12.443-18.812-33.83-31.218-58.115-31.218-.863 0-1.718.04-2.573.063z"/>
</svg>